<?xml version="1.0" standalone="no"?>
<!DOCTYPE svg PUBLIC "-//W3C//DTD SVG 20010904//EN"
 "http://www.w3.org/TR/2001/REC-SVG-20010904/DTD/svg10.dtd">
<svg version="1.0" xmlns="http://www.w3.org/2000/svg"
 width="1113.000000pt" height="1113.000000pt" viewBox="0 0 1113.000000 1113.000000"
 preserveAspectRatio="xMidYMid meet">
<metadata>
Created by potrace 1.11, written by Peter Selinger 2001-2013
</metadata>
<g transform="translate(0.000000,1113.000000) scale(0.100000,-0.100000)"
fill="#000000" stroke="none">
<path d="M5527 10982 c-15 -3 -17 -12 -13 -65 3 -34 8 -107 11 -162 11 -198
25 -368 31 -400 3 -11 7 -38 10 -60 3 -22 10 -56 15 -75 19 -72 7 -62 -21 17
-34 99 -110 280 -223 538 l-84 190 -54 -1 c-30 -1 -66 -2 -81 -3 l-28 -1 5
-92 c2 -51 7 -127 10 -168 5 -82 13 -208 20 -340 3 -47 7 -116 9 -155 9 -118
18 -263 21 -328 2 -34 4 -68 4 -75 1 -10 19 -13 74 -11 39 2 78 5 85 7 14 5
13 33 -3 217 -2 22 -6 81 -10 130 -3 50 -8 108 -10 130 -2 22 -7 69 -10 105
-4 36 -8 76 -10 90 -2 14 -6 52 -9 85 -5 51 -4 56 5 30 6 -16 27 -73 46 -125
34 -91 47 -123 99 -238 13 -29 24 -54 24 -57 0 -2 13 -32 29 -67 15 -35 50
-113 76 -175 l48 -111 56 3 c31 1 68 3 82 4 26 1 26 2 23 64 -1 34 -5 98 -8
142 -8 100 -13 187 -21 340 -4 66 -8 136 -10 155 -2 19 -6 94 -10 165 -4 72
-9 144 -10 160 -2 17 -3 56 -4 88 l-1 58 -73 -3 c-40 -2 -81 -4 -90 -6z"/>
<path d="M6019 10968 c0 -7 -2 -20 -4 -29 -1 -10 -6 -52 -10 -95 -3 -44 -8
-92 -10 -109 -2 -16 -7 -66 -10 -110 -3 -44 -8 -91 -10 -105 -3 -14 -7 -61
-10 -105 -3 -44 -7 -98 -10 -120 -8 -69 -14 -127 -20 -210 -4 -44 -8 -89 -10
-100 -1 -11 -6 -55 -10 -98 l-7 -77 28 -1 c16 0 36 -2 44 -3 8 -2 58 -6 110
-10 52 -4 113 -9 135 -11 22 -1 62 -4 90 -6 l50 -3 8 59 c4 33 5 65 3 70 -2 6
-40 11 -84 13 -44 2 -88 5 -98 7 -11 2 -37 4 -58 4 l-39 1 7 78 c12 143 18
207 25 262 l6 55 35 -1 c19 -1 74 -5 123 -8 98 -8 93 -12 100 72 4 47 2 53
-17 57 -30 6 -133 14 -185 15 l-44 0 7 88 c7 91 15 176 21 227 2 17 4 36 4 43
1 11 16 13 74 7 39 -3 104 -8 143 -10 l70 -5 3 44 c1 25 4 54 6 65 5 26 -7 29
-125 36 -52 3 -111 7 -130 10 -125 15 -200 16 -201 3z"/>
<path d="M4577 10899 c-205 -33 -292 -225 -197 -435 30 -66 71 -102 232 -207
182 -119 219 -163 220 -268 0 -58 -12 -82 -58 -113 -41 -28 -123 -32 -188 -10
-49 18 -48 18 -42 -3 2 -10 10 -44 16 -76 10 -52 15 -59 46 -72 22 -9 62 -13
112 -12 209 6 328 170 274 377 -32 123 -75 170 -282 308 -163 109 -192 144
-194 233 -1 107 114 173 228 129 41 -15 45 -13 36 23 -5 17 -14 53 -20 78 -7
25 -17 46 -23 46 -7 0 -34 2 -62 5 -27 3 -71 2 -98 -3z"/>
<path d="M6922 10837 c-10 -17 -119 -232 -242 -477 -299 -596 -289 -574 -285
-578 9 -9 146 -38 154 -33 6 4 31 50 56 104 25 53 51 98 58 98 14 2 10 2 96
-15 36 -8 83 -17 103 -20 l38 -7 -4 -114 c-2 -63 -1 -117 3 -120 4 -2 23 -7
42 -10 19 -3 52 -10 74 -15 22 -5 41 -7 43 -5 2 2 4 272 5 601 l2 598 -40 8
c-22 4 -50 10 -62 13 -16 4 -26 -3 -41 -28z m14 -284 c-17 -153 -23 -244 -27
-409 -2 -71 -7 -110 -14 -108 -10 3 -20 5 -127 25 -65 13 -65 2 -3 134 57 121
129 288 151 353 10 28 20 52 22 52 2 0 1 -21 -2 -47z"/>
<path d="M7381 10272 c-101 -246 -189 -460 -197 -477 -36 -84 -73 -175 -70
-175 2 0 40 -13 84 -29 l80 -28 18 46 c9 25 25 64 34 86 42 99 63 148 111 265
28 69 55 131 59 139 4 8 6 -127 3 -300 l-4 -315 85 -27 c86 -28 103 -31 99
-18 -1 5 -5 104 -8 222 -3 118 -8 259 -10 315 l-4 101 228 226 229 227 -85 27
-85 28 -219 -225 -219 -225 26 60 c14 33 30 69 35 80 22 51 148 362 151 374 2
9 -22 23 -72 42 -41 15 -77 28 -80 28 -3 1 -88 -201 -189 -447z"/>
<path d="M3580 10619 c-41 -17 -79 -32 -85 -33 -5 -2 -19 -7 -30 -11 -11 -5
-42 -17 -70 -27 -53 -20 -68 -26 -127 -51 l-37 -16 28 -58 c25 -50 68 -145
220 -475 76 -165 95 -207 121 -263 15 -33 40 -87 55 -120 15 -33 38 -83 51
-111 l23 -52 201 78 c111 43 206 82 211 87 6 6 0 31 -16 66 -15 31 -27 57 -29
57 -6 0 -122 -43 -185 -69 -41 -17 -75 -30 -77 -29 -7 8 -164 355 -164 363 0
2 50 22 110 45 67 26 110 48 110 57 0 7 -11 36 -25 64 -20 38 -30 49 -43 45
-9 -4 -62 -23 -117 -45 l-99 -39 -32 72 c-17 39 -50 111 -73 159 -22 49 -41
94 -41 100 0 7 56 34 125 60 69 27 125 52 125 56 0 4 -12 33 -27 64 l-28 56
-75 -30z"/>
<path d="M8284 10318 c-34 -57 -114 -193 -179 -303 -65 -110 -174 -294 -242
-409 -69 -114 -121 -212 -116 -216 4 -5 94 -51 198 -103 143 -72 193 -92 201
-84 6 7 24 33 38 59 l28 47 -125 62 -125 62 18 31 c10 17 46 80 81 139 35 59
73 123 83 142 11 19 23 35 27 35 4 0 51 -22 104 -50 53 -27 102 -50 109 -50 6
0 26 24 43 54 l31 55 -21 14 c-12 7 -61 33 -109 56 l-87 43 17 32 c53 96 168
286 174 286 4 0 61 -26 128 -59 83 -40 123 -55 129 -47 4 6 20 32 34 58 19 35
23 49 14 55 -20 13 -381 193 -387 193 -3 0 -33 -46 -66 -102z"/>
<path d="M2865 10314 c-33 -19 -64 -35 -69 -37 -13 -4 -6 -17 256 -416 235
-356 277 -428 278 -463 0 -26 -51 -74 -94 -88 -48 -15 -77 -8 -117 32 -28 28
-195 276 -467 693 -36 55 -68 104 -72 108 -10 11 -151 -65 -146 -78 4 -12 149
-234 371 -570 196 -295 243 -342 356 -353 108 -10 274 82 325 181 47 89 14
167 -210 507 -82 124 -191 289 -242 367 -51 78 -97 143 -101 146 -4 2 -35 -11
-68 -29z"/>
<path d="M8704 9717 c-159 -199 -291 -364 -294 -367 -3 -3 -30 -36 -60 -75
-73 -92 -83 -105 -99 -122 -8 -8 -10 -18 -5 -23 24 -24 129 -88 136 -84 4 3
85 101 179 219 94 118 173 215 176 215 3 0 2 -8 -2 -17 -4 -10 -8 -25 -10 -33
-2 -8 -38 -124 -79 -258 -42 -134 -76 -247 -76 -252 0 -11 131 -103 137 -96 5
5 105 327 155 497 l22 77 56 -5 c71 -6 136 19 206 78 156 135 208 307 122 409
-30 36 -170 138 -264 193 -6 4 -132 -146 -300 -356z m426 79 c19 -55 -12 -122
-96 -208 -68 -70 -110 -79 -193 -41 l-40 19 125 157 126 157 34 -28 c18 -15
38 -40 44 -56z"/>
<path d="M2049 9789 c-41 -15 -279 -179 -279 -193 0 -2 10 -14 23 -28 12 -13
50 -57 85 -96 35 -39 75 -83 89 -99 65 -71 107 -118 223 -248 69 -77 134 -149
145 -161 11 -11 49 -54 85 -94 36 -40 87 -97 113 -126 l49 -53 63 47 c35 26
64 52 64 57 0 6 -23 35 -52 66 -28 31 -81 89 -117 129 -36 40 -78 87 -93 104
-73 79 -93 102 -107 121 -13 18 -13 19 0 9 8 -6 65 -37 125 -69 61 -32 142
-75 180 -95 39 -21 110 -59 159 -84 l89 -47 36 25 c20 13 51 37 69 53 l33 28
-93 48 c-51 26 -140 72 -198 103 -58 30 -144 75 -191 100 l-86 44 17 51 c10
29 15 66 13 87 -9 63 -55 144 -124 214 -107 110 -212 145 -320 107z m113 -157
c71 -33 160 -133 173 -194 8 -37 -16 -95 -50 -120 -23 -17 -24 -17 -93 60 -39
42 -80 88 -92 102 -12 14 -39 44 -61 67 -21 23 -39 46 -39 50 0 17 71 50 110
52 8 0 31 -7 52 -17z"/>
<path d="M9587 9572 l-48 -49 122 -108 121 -108 -83 -40 c-46 -21 -104 -48
-129 -59 -25 -11 -88 -41 -140 -66 -52 -24 -122 -57 -155 -72 -33 -15 -105
-49 -160 -75 -55 -26 -127 -60 -160 -75 -33 -15 -100 -47 -150 -70 l-90 -42
30 -25 c33 -28 169 -149 195 -173 9 -8 50 -44 91 -80 41 -36 80 -70 87 -77 22
-21 35 -15 86 36 39 39 45 51 33 57 -8 5 -50 41 -93 80 -44 39 -96 86 -117
104 l-38 33 112 54 c61 29 113 53 114 53 3 0 173 80 335 157 63 31 140 67 170
81 30 13 102 47 160 74 58 28 120 56 138 64 l32 14 -52 47 c-29 25 -87 76
-128 113 -166 148 -225 200 -230 200 -3 0 -27 -22 -53 -48z"/>
<path d="M1414 9272 l-192 -187 46 -40 c24 -22 50 -43 57 -47 7 -4 38 19 79
58 l67 64 212 -182 c117 -101 226 -195 242 -209 17 -15 68 -59 115 -99 47 -40
114 -98 149 -129 105 -93 97 -91 164 -28 l58 54 -68 59 c-77 67 -85 74 -203
175 -47 39 -103 88 -126 108 -57 51 -100 88 -174 151 -36 30 -67 57 -70 60 -3
3 -45 39 -93 80 l-88 73 65 66 66 66 -48 41 c-26 22 -52 43 -57 46 -6 3 -96
-78 -201 -180z"/>
<path d="M565 8849 c-38 -56 -76 -107 -83 -114 -13 -15 10 -34 217 -181 46
-32 113 -81 150 -107 36 -26 73 -52 81 -57 11 -6 12 -13 5 -24 -238 -351 -307
-467 -437 -728 -108 -219 -195 -433 -268 -665 -39 -122 -115 -402 -124 -458
-2 -16 -10 -55 -16 -85 -6 -30 -13 -68 -15 -85 -3 -16 -7 -39 -9 -50 -17 -87
-42 -302 -53 -460 -13 -196 -6 -646 12 -758 2 -12 6 -53 10 -90 3 -37 8 -76
10 -85 1 -9 6 -39 9 -67 6 -45 11 -79 22 -140 2 -11 11 -54 19 -95 8 -41 17
-85 19 -96 3 -12 23 -92 45 -179 121 -462 304 -890 561 -1310 74 -122 150
-235 178 -268 11 -12 13 -21 6 -25 -81 -53 -284 -209 -282 -217 6 -21 153
-224 163 -225 9 0 263 180 380 269 22 17 79 59 127 93 104 76 621 450 627 455
5 4 -41 73 -111 165 l-58 77 -301 -219 -301 -220 -40 56 c-336 481 -602 1097
-718 1664 -22 107 -24 115 -34 185 -3 22 -8 49 -10 60 -3 18 -11 73 -22 168
-2 20 -6 54 -8 75 -17 140 -23 520 -12 682 3 41 8 110 11 152 3 42 7 85 9 95
2 10 7 43 11 73 71 564 276 1160 580 1685 65 113 228 360 255 389 21 21 14 24
179 -94 207 -149 282 -202 285 -199 37 42 164 235 159 240 -5 4 -125 91 -268
193 -143 102 -264 189 -270 193 -45 37 -605 433 -612 433 -4 -1 -39 -46 -78
-101z"/>
<path d="M10513 8872 c-50 -37 -100 -73 -110 -80 -10 -7 -209 -150 -443 -318
-234 -168 -442 -316 -462 -330 -41 -26 -45 -35 -25 -56 7 -7 34 -44 60 -83 26
-38 58 -83 71 -99 l23 -30 174 124 c96 68 179 127 185 132 22 16 246 -344 374
-600 62 -126 120 -249 120 -258 0 -3 8 -24 19 -47 45 -100 131 -346 167 -477
21 -76 72 -279 78 -315 3 -17 10 -55 16 -85 6 -30 12 -64 14 -75 14 -74 21
-126 31 -225 4 -35 9 -73 11 -84 9 -48 18 -266 18 -436 0 -171 -11 -426 -18
-439 -2 -3 -6 -38 -10 -76 -4 -39 -8 -81 -11 -95 -2 -14 -6 -42 -9 -62 -3 -21
-9 -55 -12 -75 -8 -57 -72 -353 -84 -393 -6 -19 -13 -46 -16 -58 -10 -51 -125
-383 -169 -492 -105 -256 -279 -585 -428 -807 l-55 -82 -248 181 c-137 99
-254 182 -261 185 -12 5 -172 -202 -173 -223 0 -6 21 -26 48 -45 26 -18 52
-37 57 -42 10 -8 68 -50 300 -218 72 -52 135 -98 140 -102 6 -5 60 -44 120
-88 61 -43 191 -138 289 -209 99 -72 180 -129 181 -128 102 138 165 231 160
238 -3 5 -45 37 -93 72 -48 34 -91 66 -97 71 -5 4 -41 31 -80 58 -112 81 -109
77 -82 113 40 52 141 215 219 352 197 345 357 731 459 1106 60 222 122 538
134 685 3 37 8 75 10 83 11 43 20 254 20 490 0 239 -3 307 -21 490 -5 54 -31
241 -39 290 -3 14 -12 65 -21 115 -8 49 -17 92 -19 95 -2 4 -7 22 -10 41 -10
56 -54 227 -86 334 -57 187 -110 329 -207 560 -53 126 -184 375 -305 580 -7
11 -50 78 -96 148 -46 70 -82 129 -80 131 6 5 292 211 427 306 61 44 112 83
112 86 0 9 -163 234 -169 234 -3 -1 -47 -31 -98 -68z"/>
<path d="M3460 8699 c-97 -10 -146 -49 -159 -125 -10 -54 -6 -1313 4 -1344 13
-41 45 -80 78 -94 26 -11 151 -14 651 -15 341 -1 622 -3 624 -6 8 -7 5 -202
-2 -214 -4 -5 -48 -45 -99 -87 -119 -100 -174 -156 -246 -254 -81 -108 -173
-304 -195 -416 -3 -10 -9 -40 -15 -66 -27 -117 -36 -380 -18 -511 16 -118 108
-374 138 -385 5 -2 9 -9 9 -16 0 -7 8 -21 18 -32 9 -10 29 -36 45 -56 66 -88
184 -188 325 -274 l67 -41 1 -222 c1 -121 0 -221 -1 -221 -2 0 -26 16 -54 35
-89 59 -163 59 -224 0 -20 -19 -42 -46 -49 -59 -12 -23 -51 -91 -95 -166 -377
-647 -359 -612 -354 -697 3 -49 114 -129 336 -241 86 -44 268 -119 352 -147
29 -9 56 -21 59 -27 4 -5 7 -87 9 -181 1 -107 6 -183 14 -201 16 -40 59 -75
101 -83 19 -4 415 -7 880 -7 912 -1 883 -2 942 52 37 34 41 65 41 287 -1 139
2 196 12 210 7 12 53 45 101 75 157 96 221 146 315 245 214 228 332 547 333
900 0 80 -9 193 -18 235 -1 8 -6 33 -10 55 -22 119 -81 264 -153 375 -101 156
-273 304 -488 420 -44 24 -82 45 -85 47 -5 5 -8 324 -3 340 3 6 19 14 36 17
74 14 92 35 211 249 14 26 37 66 50 90 13 23 44 78 68 122 25 44 57 103 73
130 135 243 139 250 143 300 3 40 -1 57 -20 85 -33 48 -91 77 -328 165 -113
41 -212 79 -220 83 -9 6 -15 26 -17 50 l-1 41 631 3 632 3 36 23 c71 43 69 24
69 762 0 584 -2 664 -16 700 -19 48 -57 77 -110 86 -50 8 -4351 11 -4424 3z"/>
<path d="M2170 2629 c-63 -55 -137 -119 -164 -142 -27 -23 -54 -47 -60 -52
-27 -26 -431 -372 -452 -388 l-24 -19 -68 66 -68 65 -54 -49 -55 -50 190 -185
c105 -102 192 -185 195 -185 3 0 29 21 58 46 l53 47 -65 64 -65 64 112 97 c62
53 141 122 177 152 35 30 72 62 80 70 9 8 30 26 46 39 16 13 47 40 69 60 22
20 64 56 94 81 29 25 59 50 65 55 13 12 157 136 169 146 8 6 -101 120 -113
118 -3 0 -57 -45 -120 -100z"/>
<path d="M8926 2523 c-199 -177 -208 -187 -185 -197 13 -6 74 -33 134 -62 61
-28 133 -62 160 -74 28 -13 115 -54 193 -91 79 -38 145 -69 147 -69 1 0 50
-22 107 -49 57 -27 149 -70 203 -95 83 -39 97 -48 84 -59 -8 -8 -52 -47 -99
-88 -46 -41 -95 -83 -107 -94 l-23 -21 49 -48 c35 -35 53 -46 64 -40 16 10
207 178 312 275 22 20 51 46 64 56 l23 19 -68 31 c-110 50 -962 451 -978 460
-11 6 4 24 62 75 43 37 101 89 130 116 l53 48 -51 47 c-28 26 -54 47 -58 47
-4 0 -101 -84 -216 -187z"/>
<path d="M2533 2403 c-66 -77 -199 -225 -258 -288 -16 -18 -59 -65 -95 -106
-35 -41 -67 -76 -70 -79 -3 -3 -45 -50 -95 -105 -49 -55 -92 -102 -95 -105
-33 -33 -152 -171 -149 -174 77 -61 216 -159 249 -177 66 -34 157 -33 231 4
172 86 292 309 223 415 -9 13 -14 25 -12 26 2 2 71 38 153 81 83 43 182 95
220 116 39 20 99 51 133 69 34 17 62 33 62 34 0 2 -30 27 -66 55 l-67 51 -116
-61 c-64 -34 -138 -74 -166 -89 -27 -15 -92 -49 -142 -74 -51 -26 -95 -52 -98
-57 -4 -5 -13 -9 -22 -9 -16 0 -14 3 137 170 43 47 111 123 153 169 l75 85
-64 48 c-35 26 -67 48 -72 48 -4 0 -27 -21 -49 -47z m-236 -585 c28 -31 43
-62 43 -88 0 -83 -146 -230 -228 -230 -31 0 -112 36 -112 49 0 6 11 19 141
163 38 42 79 88 90 102 25 32 39 33 66 4z"/>
<path d="M8640 2283 c-36 -24 -66 -47 -68 -51 -1 -4 9 -46 24 -92 14 -47 47
-157 74 -245 26 -88 53 -173 59 -188 22 -58 9 -46 -91 80 -56 70 -107 133
-113 139 -5 7 -39 48 -73 93 -35 44 -68 81 -74 81 -7 0 -109 -64 -136 -86 -2
-1 46 -65 108 -141 61 -76 117 -145 123 -153 7 -8 28 -35 47 -60 19 -25 58
-72 85 -106 28 -33 61 -75 75 -93 14 -19 32 -42 40 -51 8 -10 29 -35 45 -56
17 -21 44 -54 60 -74 17 -20 41 -52 55 -70 46 -61 112 -140 118 -140 9 0 172
110 218 147 81 64 111 148 86 239 -27 95 -148 236 -237 275 -51 22 -119 31
-152 18 -25 -9 -19 -27 -134 356 -34 116 -65 213 -68 216 -3 4 -35 -13 -71
-38z m327 -674 c39 -14 89 -64 131 -129 45 -69 49 -125 12 -165 -53 -56 -49
-58 -180 105 -66 83 -120 155 -120 159 0 12 70 40 102 40 15 1 39 -4 55 -10z"/>
<path d="M3108 1993 c-94 -27 -140 -88 -592 -781 -79 -122 -92 -152 -66 -152
5 0 32 -14 60 -30 28 -17 55 -30 60 -30 9 0 48 58 333 495 214 327 244 360
311 345 46 -10 104 -46 111 -70 13 -42 -6 -82 -126 -263 -43 -66 -79 -124 -79
-128 0 -5 -4 -9 -9 -9 -5 0 -11 -6 -13 -12 -2 -7 -70 -114 -151 -237 -82 -124
-151 -229 -153 -235 -6 -15 135 -91 146 -80 4 5 46 68 92 139 47 72 147 225
223 340 199 303 211 324 234 392 41 122 -12 215 -165 289 -82 39 -147 48 -216
27z"/>
<path d="M7945 1859 c-131 -65 -199 -104 -197 -113 2 -12 495 -851 573 -977
l29 -46 197 100 c109 54 200 101 202 103 3 2 -48 89 -66 114 -2 2 -18 -3 -36
-12 -18 -9 -73 -37 -124 -62 l-91 -45 -58 97 c-75 125 -90 149 -113 193 l-20
35 109 52 c90 43 108 55 102 70 -14 33 -57 102 -65 102 -4 0 -52 -22 -107 -50
-55 -27 -103 -50 -108 -50 -4 0 -28 35 -53 77 -24 42 -53 91 -64 109 -45 72
-85 144 -85 152 0 4 54 34 120 67 66 33 120 62 120 65 0 3 -13 26 -28 51 -16
25 -31 50 -33 56 -2 7 -84 -28 -204 -88z"/>
<path d="M3694 1663 c-52 -112 -84 -180 -154 -333 -58 -127 -80 -173 -142
-310 -31 -67 -72 -156 -125 -271 l-40 -85 66 -27 c105 -42 350 -137 354 -137
6 0 57 108 57 119 0 4 -56 30 -125 56 -69 26 -125 52 -125 57 0 6 33 82 73
169 80 176 72 169 152 134 67 -29 138 -55 150 -55 6 0 23 27 38 60 l26 61 -27
10 c-15 5 -34 12 -42 16 -8 3 -17 7 -20 8 -3 1 -18 7 -35 14 -16 6 -43 17 -60
23 -16 6 -34 14 -38 18 -4 4 9 42 29 86 20 43 56 122 80 174 24 52 47 96 52
98 5 1 62 -18 127 -43 64 -25 121 -45 126 -45 5 0 22 27 38 59 l29 60 -147 57
c-80 31 -173 67 -205 80 -33 13 -63 24 -67 24 -5 0 -25 -35 -45 -77z"/>
<path d="M7585 1691 l-80 -28 2 -314 c1 -180 -1 -308 -6 -299 -14 24 -211 501
-211 510 0 20 -22 18 -98 -8 l-80 -27 18 -40 c10 -22 86 -206 170 -410 84
-203 158 -383 165 -400 7 -16 32 -77 56 -135 23 -58 44 -107 45 -109 3 -3 164
49 164 54 0 1 -18 47 -40 101 -41 101 -46 112 -73 174 -9 19 -25 60 -37 90
-12 30 -31 78 -42 105 -19 48 -9 39 197 -172 l216 -221 77 25 c42 14 79 28 82
30 2 2 -98 106 -222 231 l-226 227 3 85 c11 297 18 530 16 548 -1 16 -1 16
-96 -17z"/>
<path d="M6980 1491 c-41 -8 -77 -17 -80 -19 -3 -2 -5 -56 -5 -119 l0 -116
-85 -17 c-47 -9 -101 -20 -120 -24 l-36 -6 -48 105 c-27 58 -54 105 -61 105
-7 0 -44 -7 -83 -16 l-70 -16 12 -26 c6 -15 75 -153 153 -307 78 -154 194
-386 259 -515 64 -129 118 -237 120 -239 2 -2 33 2 69 9 56 10 65 15 65 34 1
11 0 102 0 201 -1 99 -3 359 -4 577 -1 219 -4 399 -7 401 -2 1 -38 -4 -79 -12z
m-74 -426 c3 -82 15 -292 19 -340 2 -27 7 -79 10 -115 l5 -65 -16 40 c-54 135
-77 189 -109 260 -20 44 -46 100 -57 125 -11 25 -27 57 -34 72 -14 27 -13 27
23 37 21 5 56 12 77 16 22 3 42 8 45 11 3 2 12 3 21 2 10 -2 15 -16 16 -43z"/>
<path d="M4619 1434 l-46 -14 -15 -75 c-8 -41 -12 -75 -9 -75 3 0 22 5 41 11
55 16 112 19 150 7 43 -13 90 -64 91 -100 1 -16 2 -34 3 -40 2 -26 -27 -107
-44 -126 -34 -36 -105 -88 -200 -148 -159 -98 -208 -155 -236 -272 -41 -173
42 -317 201 -350 37 -8 183 -8 191 0 8 8 42 147 37 152 -2 2 -23 -2 -47 -9
-145 -44 -254 59 -208 196 17 49 67 93 218 192 147 96 203 153 234 235 68 181
-1 358 -161 411 -57 18 -149 21 -200 5z"/>
<path d="M6257 1364 c-1 -1 -42 -5 -92 -9 -49 -4 -106 -8 -125 -10 -19 -1 -57
-3 -83 -4 l-48 -1 6 -57 c3 -32 8 -83 11 -113 3 -30 7 -75 9 -100 3 -25 7 -74
10 -110 3 -36 8 -83 10 -105 2 -22 7 -71 10 -110 3 -38 8 -86 10 -105 2 -19 7
-71 11 -115 3 -44 8 -88 10 -98 1 -9 6 -54 9 -100 10 -127 14 -150 27 -158 7
-4 15 -6 18 -4 4 3 122 14 215 20 17 1 71 5 121 10 l92 7 -5 57 c-6 81 -8 83
-47 77 -18 -3 -78 -8 -132 -12 -55 -3 -102 -8 -106 -11 -5 -2 -8 6 -9 19 0 13
-2 30 -4 38 -1 9 -5 49 -8 90 -3 41 -9 106 -13 144 -8 79 -6 82 69 85 29 2 63
4 77 6 14 1 41 3 61 4 31 1 36 4 34 24 -1 12 -3 44 -4 70 l-1 48 -37 -5 c-21
-3 -80 -8 -130 -11 l-93 -7 -1 44 c0 24 -2 52 -4 63 -5 23 -12 98 -20 211 -7
79 -6 80 17 80 13 1 66 5 118 9 52 4 105 8 118 9 24 0 26 11 16 90 l-7 47 -54
-3 c-30 -2 -55 -4 -56 -4z"/>
<path d="M5159 1322 c-1 -20 -2 -50 -4 -67 -1 -16 -5 -82 -9 -145 -4 -63 -9
-144 -11 -180 -2 -36 -7 -117 -11 -180 -3 -63 -8 -135 -9 -160 -2 -25 -6 -99
-10 -165 -3 -66 -8 -145 -11 -176 -6 -66 -7 -65 91 -68 l70 -2 124 288 c68
158 130 303 138 322 9 19 28 71 44 115 25 70 30 67 14 -8 -3 -11 -7 -40 -10
-65 -3 -25 -7 -55 -9 -66 -9 -47 -18 -167 -32 -405 -12 -206 -13 -195 21 -196
17 -1 54 -3 82 -5 29 -1 55 -1 57 2 5 4 10 78 21 279 3 52 7 127 10 165 3 39
7 113 10 165 3 52 7 127 10 165 2 39 7 115 10 170 3 55 8 123 10 150 3 28 1
55 -3 62 -8 13 -134 24 -151 14 -6 -4 -29 -49 -51 -101 -23 -52 -50 -113 -60
-135 -70 -156 -169 -395 -197 -475 l-34 -95 6 62 c3 33 7 69 9 80 2 10 7 47
10 83 4 36 9 83 11 105 2 22 7 81 10 130 8 108 11 151 20 273 l7 92 -23 1
c-13 0 -52 2 -86 4 l-63 5 -1 -38z"/>
</g>
</svg>
